<svg xmlns="http://www.w3.org/2000/svg" version="1.1" xmlns:xlink="http://www.w3.org/1999/xlink" width="1000" height="1000"><metadata><rdf:RDF xmlns:rdf="http://www.w3.org/1999/02/22-rdf-syntax-ns#" xmlns:dc="http://purl.org/dc/elements/1.1/"><rdf:Description><dc:creator>RealFaviconGenerator</dc:creator><dc:source>https://realfavicongenerator.net</dc:source></rdf:Description></rdf:RDF></metadata><g clip-path="url(#SvgjsClipPath1042)"><rect width="1000" height="1000" fill="#ffffff"></rect><g transform="matrix(3.90625,0,0,3.90625,0,0)"><svg xmlns="http://www.w3.org/2000/svg" width="256" height="256" viewBox="0 0 256 256" role="img" aria-label="Butterfly Garden"><rect width="256" height="256" rx="56" fill="#fdf6f2"></rect><g transform="translate(44 60.5) scale(1.3548)">
    <path d="M65 48 C77 48, 95 53, 100 63 C106 74, 98 87, 86 86 C73 85, 65 74, 63 60 Z" fill="#2F5FD0"></path>
    <path d="M65 48 C77 48, 95 53, 100 63 C106 74, 98 87, 86 86 C73 85, 65 74, 63 60 Z" fill="#2F5FD0" transform="scale(-1,1) translate(-124,0)"></path>
    <path d="M63 34 C70 19, 88 5, 103 6 C117 7, 121 21, 112 34 C104 45, 84 51, 68 46 Z" fill="#17B3A3"></path>
    <path d="M63 34 C70 19, 88 5, 103 6 C117 7, 121 21, 112 34 C104 45, 84 51, 68 46 Z" fill="#17B3A3" transform="scale(-1,1) translate(-124,0)"></path>
    <path d="M62 21 C66 21, 68 26, 68 33 L68 61 C68 73, 65 82, 62 85 C59 82, 56 73, 56 61 L56 33 C56 26, 58 21, 62 21 Z" fill="#43332F"></path>
    <g stroke="#43332F" stroke-width="2.2" stroke-linecap="round" fill="none">
      <path d="M60 23 C55 15, 48 9, 42 7"></path>
      <path d="M64 23 C69 15, 76 9, 82 7"></path>
    </g>
    <circle cx="41" cy="6" r="2.4" fill="#43332F"></circle>
    <circle cx="83" cy="6" r="2.4" fill="#43332F"></circle>
  </g></svg></g></g><defs><clipPath id="SvgjsClipPath1042"><rect width="1000" height="1000" x="0" y="0" rx="500" ry="500"></rect></clipPath></defs></svg>